<?xml version="1.0" ?><!DOCTYPE svg  PUBLIC '-//W3C//DTD SVG 1.1//EN'  'http://www.w3.org/Graphics/SVG/1.1/DTD/svg11.dtd'><svg height="67px" id="Layer_1" style="enable-background:new 0 0 67 67;" version="1.1" viewBox="0 0 67 67" width="67px" xml:space="preserve" xmlns="http://www.w3.org/2000/svg" xmlns:xlink="http://www.w3.org/1999/xlink"><path d="M42.527,41.34c-0.278,0-0.478,0.078-0.6,0.244  c-0.121,0.155-0.18,0.424-0.18,0.796v0.896h1.543V42.38c0-0.371-0.062-0.64-0.185-0.796C42.989,41.418,42.792,41.34,42.527,41.34z   M36.509,41.308c0.234,0,0.417,0.078,0.544,0.231c0.123,0.154,0.185,0.383,0.185,0.683v4.583c0,0.286-0.053,0.487-0.153,0.611  c-0.1,0.127-0.256,0.19-0.47,0.19c-0.148,0-0.287-0.034-0.421-0.097c-0.135-0.062-0.274-0.17-0.415-0.313v-5.531  c0.119-0.122,0.239-0.213,0.36-0.271C36.26,41.335,36.383,41.308,36.509,41.308z M41.748,44.657v1.673  c0,0.468,0.057,0.791,0.17,0.974c0.118,0.18,0.313,0.269,0.592,0.269c0.289,0,0.491-0.076,0.606-0.229  c0.114-0.153,0.175-0.49,0.175-1.013v-0.404h1.795v0.455c0,0.911-0.217,1.597-0.657,2.06c-0.435,0.458-1.089,0.686-1.958,0.686  c-0.781,0-1.398-0.242-1.847-0.731c-0.448-0.486-0.676-1.157-0.676-2.014v-3.986c0-0.768,0.249-1.398,0.742-1.882  c0.493-0.484,1.128-0.727,1.911-0.727c0.799,0,1.413,0.225,1.843,0.674c0.429,0.448,0.642,1.093,0.642,1.935v2.263H41.748z   M38.623,48.495c-0.271,0.336-0.669,0.501-1.187,0.501c-0.343,0-0.646-0.062-0.912-0.191c-0.267-0.13-0.519-0.329-0.746-0.602v0.681  h-1.764V36.852h1.764v3.874c0.237-0.269,0.485-0.477,0.748-0.616c0.267-0.141,0.534-0.211,0.805-0.211  c0.554,0,0.975,0.189,1.265,0.565c0.294,0.379,0.438,0.934,0.438,1.66v4.926C39.034,47.678,38.897,48.159,38.623,48.495z   M30.958,48.884v-0.976c-0.325,0.361-0.658,0.636-1.009,0.822c-0.349,0.191-0.686,0.283-1.014,0.283  c-0.405,0-0.705-0.13-0.913-0.396c-0.201-0.266-0.305-0.658-0.305-1.189v-7.422h1.744v6.81c0,0.211,0.037,0.362,0.107,0.455  c0.077,0.096,0.196,0.142,0.358,0.142c0.128,0,0.292-0.062,0.488-0.188c0.197-0.125,0.375-0.282,0.542-0.475v-6.744h1.744v8.878  H30.958z M24.916,38.6v10.284h-1.968V38.6h-2.034v-1.748h6.036V38.6H24.916z M32.994,32.979c0-0.002,12.08,0.018,13.514,1.45  c1.439,1.434,1.455,8.513,1.455,8.554c0,0-0.012,7.117-1.455,8.556C45.074,52.969,32.994,53,32.994,53s-12.079-0.031-13.516-1.462  c-1.438-1.434-1.441-8.502-1.441-8.556c0-0.04,0.004-7.12,1.441-8.554C20.916,32.996,32.994,32.977,32.994,32.979z M42.52,29.255  h-1.966v-1.08c-0.358,0.397-0.736,0.703-1.13,0.909c-0.392,0.208-0.771,0.312-1.14,0.312c-0.458,0-0.797-0.146-1.027-0.438  c-0.229-0.291-0.345-0.727-0.345-1.311v-8.173h1.962v7.497c0,0.231,0.045,0.399,0.127,0.502c0.08,0.104,0.216,0.156,0.399,0.156  c0.143,0,0.327-0.068,0.548-0.206c0.22-0.137,0.423-0.312,0.605-0.526v-7.423h1.966V29.255z M31.847,27.588  c0.139,0.147,0.339,0.219,0.6,0.219c0.266,0,0.476-0.074,0.634-0.223c0.157-0.152,0.235-0.358,0.235-0.618v-5.327  c0-0.214-0.08-0.387-0.241-0.519c-0.16-0.131-0.37-0.196-0.628-0.196c-0.241,0-0.435,0.065-0.586,0.196  c-0.148,0.132-0.225,0.305-0.225,0.519v5.327C31.636,27.233,31.708,27.439,31.847,27.588z M30.408,19.903  c0.528-0.449,1.241-0.675,2.132-0.675c0.812,0,1.48,0.237,2.001,0.712c0.517,0.473,0.777,1.083,0.777,1.827v5.052  c0,0.836-0.255,1.49-0.762,1.968c-0.513,0.476-1.212,0.714-2.106,0.714c-0.858,0-1.547-0.246-2.064-0.736  c-0.513-0.491-0.772-1.152-0.772-1.983v-5.068C29.613,20.954,29.877,20.351,30.408,19.903z M24.262,16h-2.229l2.634,8.003v5.252  h2.213v-5.5L29.454,16h-2.25l-1.366,5.298h-0.139L24.262,16z M3,4h60v60H3V4z" style="fill-rule:evenodd;clip-rule:evenodd;fill:#CF3427;"/></svg>